<?xml version="1.0" encoding="utf-8"?>
<!-- Generator: Adobe Illustrator 16.0.0, SVG Export Plug-In . SVG Version: 6.00 Build 0)  -->
<svg version="1.2" baseProfile="tiny" id="Layer_1" xmlns="http://www.w3.org/2000/svg" xmlns:xlink="http://www.w3.org/1999/xlink"
	 x="0px" y="0px" width="1000px" height="1000px" viewBox="0 0 1000 1000" xml:space="preserve">
<line fill="none" stroke="#FFFFFF" stroke-width="40" stroke-miterlimit="10" x1="257.05" y1="154.412" x2="389.615" y2="852.909"/>
<circle fill="none" stroke="#FFFFFF" stroke-width="40" stroke-miterlimit="10" cx="629" cy="180" r="119.979"/>
<line fill="none" stroke="#FFFFFF" stroke-width="40" stroke-miterlimit="10" x1="20" y1="188" x2="20" y2="940"/>
<line fill="none" stroke="#FFFFFF" stroke-width="40" stroke-miterlimit="10" x1="746.563" y1="201.198" x2="727.729" y2="300"/>
<circle fill="#FFFFFF" cx="602.646" cy="674.137" r="20"/>
<path fill="none" stroke="#FFFFFF" stroke-width="40" stroke-miterlimit="10" d="M529,300h451v361H602l0.361,13.229L502.051,155.412
	l0.316,2.205c-12.356-65.101-75.146-107.859-140.248-95.504c-65.1,12.354-107.858,75.146-95.503,140.247l-8.25-44.743
	C246.01,92.516,183.22,49.758,118.118,62.114C53.018,74.468,10.26,137.26,22.615,202.361L18.285,180l128.33,674.909"/>
<path fill="none" stroke="#FFFFFF" stroke-width="40" stroke-miterlimit="10" d="M0.001,938.74
	c12.907,1.9,26.346,1.717,39.886-0.854c65.101-12.355,107.855-75.15,95.496-140.253l8.251,44.758
	c12.36,65.103,75.154,107.854,140.254,95.495c65.1-12.356,107.854-75.15,95.494-140.253l8.452,44.857
	c12.36,65.1,75.154,107.854,140.253,95.495c50.302-9.552,87.263-49.211,95.765-96.782l-0.981,6.668l33.903-177.87"/>
</svg>
